<mxfile host="Electron" modified="2024-02-24T15:18:15.034Z" agent="Mozilla/5.0 (Macintosh; Intel Mac OS X 10_15_7) AppleWebKit/537.36 (KHTML, like Gecko) draw.io/23.1.5 Chrome/120.0.6099.109 Electron/28.1.0 Safari/537.36" etag="-QNl4e5JaIEjcJQ-w5fl" version="23.1.5" type="device">
  <diagram name="PÃ¡gina-1" id="F4FZ5tC-4Kf22ju5TGkA">
    <mxGraphModel dx="823" dy="501" grid="1" gridSize="10" guides="1" tooltips="1" connect="1" arrows="1" fold="1" page="1" pageScale="1" pageWidth="413" pageHeight="291" math="0" shadow="0">
      <root>
        <mxCell id="0" />
        <mxCell id="1" parent="0" />
        <mxCell id="UAUr54rK7m5Vi2eiSmvg-2" value="" style="shape=image;verticalLabelPosition=bottom;labelBackgroundColor=default;verticalAlign=top;aspect=fixed;imageAspect=0;image=data:image/svg+xml,PHN2ZyB4bWxuczp4bGluaz0iaHR0cDovL3d3dy53My5vcmcvMTk5OS94bGluayIgeG1sbnM9Imh0dHA6Ly93d3cudzMub3JnLzIwMDAvc3ZnIiB4bWw6c3BhY2U9InByZXNlcnZlIiB2aWV3Qm94PSIwIDAgMTg4MS4yNSAxNzUwIiB5PSIwcHgiIHg9IjBweCIgaWQ9IkxpdmVsbG9fMSIgdmVyc2lvbj0iMS4xIj4mI3hhOzxtZXRhZGF0YT4mI3hhOwkmI3hhOwkJJiN4YTsJCSYjeGE7CSYjeGE7PC9tZXRhZGF0YT4mI3hhOzxwYXRoIGQ9Ik0xODAxLjA1NiwwSDUxNy42OTRDNDczLjQwNCwwLDQzNy41LDM1LjkwNCw0MzcuNSw4MC4xOTRjMCwwLDAsMCwwLDBWNDM3LjVsNzQzLjc1LDIxOC43NWw3MDAtMjE4Ljc1JiMxMDsmIzk7VjgwLjE5NEMxODgxLjI1LDM1LjkwNCwxODQ1LjM0NiwwLDE4MDEuMDU2LDBMMTgwMS4wNTYsMHoiIGZpbGw9IiM0MUE1RUUiLz4mI3hhOzxwYXRoIGQ9Ik0xODgxLjI1LDQzNy41SDQzNy41Vjg3NWw3NDMuNzUsMTMxLjI1bDcwMC0xMzEuMjVWNDM3LjV6IiBmaWxsPSIjMkI3Q0QzIi8+JiN4YTs8cGF0aCBkPSJNNDM3LjUsODc1djQzNy41bDcwMCw4Ny41bDc0My43NS04Ny41Vjg3NUg0MzcuNXoiIGZpbGw9IiMxODVBQkQiLz4mI3hhOzxwYXRoIGQ9Ik01MTcuNjk0LDE3NTBoMTI4My4zNjNjNDQuMjksMCw4MC4xOTQtMzUuOTA0LDgwLjE5NC04MC4xOTRsMCwwVjEzMTIuNUg0MzcuNXYzNTcuMzA2JiMxMDsmIzk7QzQzNy41LDE3MTQuMDk2LDQ3My40MDQsMTc1MCw1MTcuNjk0LDE3NTBMNTE3LjY5NCwxNzUweiIgZmlsbD0iIzEwM0Y5MSIvPiYjeGE7PHBhdGggZD0iTTk2OS44MDYsMzUwSDQzNy41djEwOTMuNzVoNTMyLjMwNmM0NC4yMy0wLjE0NCw4MC4wNS0zNS45NjQsODAuMTk0LTgwLjE5NCYjMTA7JiM5O1Y0MzAuMTk0QzEwNDkuODU2LDM4NS45NjQsMTAxNC4wMzYsMzUwLjE0NCw5NjkuODA2LDM1MHoiIG9wYWNpdHk9IjAuMSIvPiYjeGE7PHBhdGggZD0iTTkyNi4wNTYsMzkzLjc1SDQzNy41VjE0ODcuNWg0ODguNTU2YzQ0LjIzLTAuMTQ0LDgwLjA1LTM1Ljk2NCw4MC4xOTQtODAuMTk0JiMxMDsmIzk7VjQ3My45NDRDMTAwNi4xMDYsNDI5LjcxNCw5NzAuMjg2LDM5My44OTQsOTI2LjA1NiwzOTMuNzV6IiBvcGFjaXR5PSIwLjIiLz4mI3hhOzxwYXRoIGQ9Ik05MjYuMDU2LDM5My43NUg0MzcuNVYxNDAwaDQ4OC41NTZjNDQuMjMtMC4xNDQsODAuMDUtMzUuOTY0LDgwLjE5NC04MC4xOTQmIzEwOyYjOTtWNDczLjk0NEMxMDA2LjEwNiw0MjkuNzE0LDk3MC4yODYsMzkzLjg5NCw5MjYuMDU2LDM5My43NXoiIG9wYWNpdHk9IjAuMiIvPiYjeGE7PHBhdGggZD0iTTg4Mi4zMDYsMzkzLjc1SDQzNy41VjE0MDBoNDQ0LjgwNmM0NC4yMy0wLjE0NCw4MC4wNS0zNS45NjQsODAuMTk0LTgwLjE5NCYjMTA7JiM5O1Y0NzMuOTQ0Qzk2Mi4zNTYsNDI5LjcxNCw5MjYuNTM2LDM5My44OTQsODgyLjMwNiwzOTMuNzV6IiBvcGFjaXR5PSIwLjIiLz4mI3hhOzxsaW5lYXJHcmFkaWVudCBncmFkaWVudFRyYW5zZm9ybT0ibWF0cml4KDEgMCAwIC0xIDAgMTc1MikiIHkyPSIzMzMuMDg4MyIgeDI9Ijc5NS4yOTQzIiB5MT0iMTQyMC45MTE3IiB4MT0iMTY3LjIwNTciIGdyYWRpZW50VW5pdHM9InVzZXJTcGFjZU9uVXNlIiBpZD0iU1ZHSURfMV8iPiYjeGE7CTxzdG9wIHN0eWxlPSJzdG9wLWNvbG9yOiMyMzY4QzQiIG9mZnNldD0iMCIvPiYjeGE7CTxzdG9wIHN0eWxlPSJzdG9wLWNvbG9yOiMxQTVEQkUiIG9mZnNldD0iMC41Ii8+JiN4YTsJPHN0b3Agc3R5bGU9InN0b3AtY29sb3I6IzExNDZBQyIgb2Zmc2V0PSIxIi8+JiN4YTs8L2xpbmVhckdyYWRpZW50PiYjeGE7PHBhdGggZD0iTTgwLjE5NCwzOTMuNzVoODAyLjExMmM0NC4yOSwwLDgwLjE5NCwzNS45MDQsODAuMTk0LDgwLjE5NHY4MDIuMTEzJiMxMDsmIzk7YzAsNDQuMjktMzUuOTA0LDgwLjE5NC04MC4xOTQsODAuMTk0SDgwLjE5NGMtNDQuMjksMC04MC4xOTQtMzUuOTA0LTgwLjE5NC04MC4xOTRWNDczLjk0NEMwLDQyOS42NTQsMzUuOTA0LDM5My43NSw4MC4xOTQsMzkzLjc1eiIgZmlsbD0idXJsKCNTVkdJRF8xXykiLz4mI3hhOzxwYXRoIGQ9Ik0zMjkuMDg4LDEwMDguNzg4YzEuNTc1LDEyLjM4MSwyLjYyNSwyMy4xNDQsMy4xMDYsMzIuMzc1aDEuODM3YzAuNy04Ljc1LDIuMTU4LTE5LjI5NCw0LjM3NS0zMS42MzEmIzEwOyYjOTtjMi4yMTctMTIuMzM4LDQuMjE1LTIyLjc2NSw1Ljk5NC0zMS4yODFsODQuMzUtMzYzLjkxM2gxMDkuMDY5bDg3LjUsMzU4LjQ0NGM1LjA4NCwyMi4yODgsOC43MjMsNDQuODgxLDEwLjg5NCw2Ny42MzdoMS40NDQmIzEwOyYjOTtjMS42MzEtMjIuMDQ3LDQuNjcxLTQzLjk2Niw5LjEtNjUuNjI1bDY5Ljc4MS0zNjAuNjMxaDk5LjI2OWwtMTIyLjU4OCw1MjEuNUg1NzcuMjM4TDQ5NC4xMTMsNzkwLjMmIzEwOyYjOTtjLTIuNDA2LTkuOTMxLTUuMTYyLTIyLjkyNS04LjE4MS0zOC44OTRjLTMuMDE5LTE1Ljk2OS00LjktMjcuNjUtNS42NDQtMzVoLTEuNDQ0Yy0wLjk2Miw4LjQ4Ny0yLjg0NCwyMS4wODgtNS42NDQsMzcuOCYjMTA7JiM5O2MtMi44LDE2LjcxMy01LjA0NiwyOS4wNzktNi43MzgsMzcuMWwtNzguMTM4LDM0NC4yNjloLTExNy45NUwxNDcuMTMxLDYxNC4zMzdoMTAxLjA2Mmw3NS45OTQsMzY0LjY1NiYjMTA7JiM5O0MzMjUuODk0LDk4Ni40NzUsMzI3LjUxMyw5OTYuNDUsMzI5LjA4OCwxMDA4Ljc4OHoiIGZpbGw9IiNGRkZGRkYiLz4mI3hhOzwvc3ZnPg==;" parent="1" vertex="1">
          <mxGeometry x="514" y="69" width="165.05" height="153.5" as="geometry" />
        </mxCell>
        <mxCell id="BdwbdC6p4Impasfla7Dk-2" value="" style="shape=image;verticalLabelPosition=bottom;labelBackgroundColor=default;verticalAlign=top;aspect=fixed;imageAspect=0;image=data:image/svg+xml,PHN2ZyB4bWxuczp4bGluaz0iaHR0cDovL3d3dy53My5vcmcvMTk5OS94bGluayIgeG1sbnM9Imh0dHA6Ly93d3cudzMub3JnLzIwMDAvc3ZnIiB4bWw6c3BhY2U9InByZXNlcnZlIiBzdHlsZT0ic3Ryb2tlLXdpZHRoOjQ7IHN0cm9rZTpyZ2IoMjU1LCAyNTUsIDI1NSk7IiB2aWV3Qm94PSItNSAtNSA0MjUgNDI1IiBoZWlnaHQ9IjgwMHB4IiB3aWR0aD0iODAwcHgiIGlkPSJDYXBhXzEiIHZlcnNpb249IjEuMSIgZmlsbD0iIzAwMDAwMCI+JiN4YTs8Zz4mI3hhOwk8cGF0aCBkPSJNNDEyLjM5OCwyMDIuOTkzTDI4OC41MzUsOTUuMjg5Yy0xLjUwMi0xLjMwNS0zLjU5MS0xLjY5OS01LjQ2My0xLjAyN2MtMS44NzMsMC42Ny0zLjIzNywyLjMtMy41NjgsNC4yNjFsLTguOTM4LDUyLjg4NyYjMTA7JiM5OyYjOTtINDAuNTU0Yy0yLjY4NCwwLTQuOTc2LDEuOTM4LTUuNDIzLDQuNTgzbC0zLjA1NCwxOC4wNjdjLTAuMjcsMS41OTcsMC4xNzcsMy4yMywxLjIyMyw0LjQ2N2MxLjA0NSwxLjIzNywyLjU4MSwxLjk1LDQuMiwxLjk1JiMxMDsmIzk7JiM5O2gxMDMuOTgybC0yLjIwOCwxNUg4LjEzNGMtMi42ODQsMC00Ljk3NiwxLjkzOC01LjQyMyw0LjU4M2wtMi42MzQsMTUuNTg0Yy0wLjI3LDEuNTk3LDAuMTc3LDMuMjI5LDEuMjIzLDQuNDY3JiMxMDsmIzk7JiM5O2MxLjA0NSwxLjIzNiwyLjU4MSwxLjk0OSw0LjIsMS45NDloMTU5LjE5NmwtMi4yMDYsMTVINjMuNTA1Yy0yLjY4NCwwLTQuOTc2LDEuOTM4LTUuNDIzLDQuNTgzbC0yLjUwNSwxNC44MTcmIzEwOyYjOTsmIzk7Yy0wLjI3MSwxLjU5NywwLjE3NywzLjIyOSwxLjIyMiw0LjQ2N2MxLjA0NiwxLjIzNywyLjU4MiwxLjk1LDQuMjAxLDEuOTVoMTkwLjcyMWwtOC42MjgsNTEuMDUzJiMxMDsmIzk7JiM5O2MtMC4zNjYsMi4xNjgsMC41OTMsNC4zNDYsMi40MzksNS41MzhjMC45MDgsMC41ODYsMS45NDUsMC44NzksMi45ODIsMC44NzljMS4wNywwLDIuMTQxLTAuMzEyLDMuMDY3LTAuOTM1bDE2MC4yNzItMTA3LjcwNCYjMTA7JiM5OyYjOTtjMS40MjEtMC45NTUsMi4zMTYtMi41MTgsMi40MjItNC4yMjVDNDE0LjM4NSwyMDUuNzc2LDQxMy42ODksMjA0LjExNiw0MTIuMzk4LDIwMi45OTN6Ii8+JiN4YTs8L2c+JiN4YTs8L3N2Zz4=;" parent="1" vertex="1">
          <mxGeometry x="329.38" y="66.12" width="159.25" height="159.25" as="geometry" />
        </mxCell>
        <mxCell id="1kD9oMxnBnYA4VUUJ05l-2" value="" style="shape=image;verticalLabelPosition=bottom;labelBackgroundColor=default;verticalAlign=top;aspect=fixed;imageAspect=0;image=data:image/svg+xml,PHN2ZyB4bWxucz0iaHR0cDovL3d3dy53My5vcmcvMjAwMC9zdmciIGZpbGw9Im5vbmUiIHN0eWxlPSJzdHJva2Utd2lkdGg6MC4yNTsgc3Ryb2tlOnJnYigyNTQsIDI1NCwgMjU0KTsiIHZpZXdCb3g9Ii01IC01IDExMCAxMTAiIGhlaWdodD0iMTAwIiB3aWR0aD0iMTAwIj4mI3hhOyAgPHBhdGggZmlsbD0iI2ZmZiIgZD0iTTYuMDE3IDQuMzEzbDU1LjMzMyAtNC4wODdjNi43OTcgLTAuNTgzIDguNTQzIC0wLjE5IDEyLjgxNyAyLjkxN2wxNy42NjMgMTIuNDQzYzIuOTEzIDIuMTQgMy44ODMgMi43MjMgMy44ODMgNS4wNTN2NjguMjQzYzAgNC4yNzcgLTEuNTUzIDYuODA3IC02Ljk5IDcuMTkzTDI0LjQ2NyA5OS45NjdjLTQuMDggMC4xOTMgLTYuMDIzIC0wLjM5IC04LjE2IC0zLjExM0wzLjMgNzkuOTRjLTIuMzMzIC0zLjExMyAtMy4zIC01LjQ0MyAtMy4zIC04LjE2N1YxMS4xMTNjMCAtMy40OTcgMS41NTMgLTYuNDEzIDYuMDE3IC02Ljh6Ii8+JiN4YTsgIDxwYXRoIGZpbGw9IiMwMDAiIGQ9Ik02MS4zNSAwLjIyN2wtNTUuMzMzIDQuMDg3QzEuNTUzIDQuNyAwIDcuNjE3IDAgMTEuMTEzdjYwLjY2YzAgMi43MjMgMC45NjcgNS4wNTMgMy4zIDguMTY3bDEzLjAwNyAxNi45MTNjMi4xMzcgMi43MjMgNC4wOCAzLjMwNyA4LjE2IDMuMTEzbDY0LjI1NyAtMy44OWM1LjQzMyAtMC4zODcgNi45OSAtMi45MTcgNi45OSAtNy4xOTNWMjAuNjRjMCAtMi4yMSAtMC44NzMgLTIuODQ3IC0zLjQ0MyAtNC43MzNMNzQuMTY3IDMuMTQzYy00LjI3MyAtMy4xMDcgLTYuMDIgLTMuNSAtMTIuODE3IC0yLjkxN3pNMjUuOTIgMTkuNTIzYy01LjI0NyAwLjM1MyAtNi40MzcgMC40MzMgLTkuNDE3IC0xLjk5TDguOTI3IDExLjUwN2MtMC43NyAtMC43OCAtMC4zODMgLTEuNzUzIDEuNTU3IC0xLjk0N2w1My4xOTMgLTMuODg3YzQuNDY3IC0wLjM5IDYuNzkzIDEuMTY3IDguNTQgMi41MjdsOS4xMjMgNi42MWMwLjM5IDAuMTk3IDEuMzYgMS4zNiAwLjE5MyAxLjM2bC01NC45MzMgMy4zMDcgLTAuNjggMC4wNDd6TTE5LjgwMyA4OC4zVjMwLjM2N2MwIC0yLjUzIDAuNzc3IC0zLjY5NyAzLjEwMyAtMy44OTNMODYgMjIuNzhjMi4xNCAtMC4xOTMgMy4xMDcgMS4xNjcgMy4xMDcgMy42OTN2NTcuNTQ3YzAgMi41MyAtMC4zOSA0LjY3IC0zLjg4MyA0Ljg2M2wtNjAuMzc3IDMuNWMtMy40OTMgMC4xOTMgLTUuMDQzIC0wLjk3IC01LjA0MyAtNC4wODN6bTU5LjYgLTU0LjgyN2MwLjM4NyAxLjc1IDAgMy41IC0xLjc1IDMuN2wtMi45MSAwLjU3N3Y0Mi43NzNjLTIuNTI3IDEuMzYgLTQuODUzIDIuMTM3IC02Ljc5NyAyLjEzNyAtMy4xMDcgMCAtMy44ODMgLTAuOTczIC02LjIxIC0zLjg4N2wtMTkuMDMgLTI5Ljk0djI4Ljk2N2w2LjAyIDEuMzYzczAgMy41IC00Ljg1NyAzLjVsLTEzLjM5IDAuNzc3Yy0wLjM5IC0wLjc4IDAgLTIuNzIzIDEuMzU3IC0zLjExbDMuNDk3IC0wLjk3di0zOC4zTDMwLjQ4IDQwLjY2N2MtMC4zOSAtMS43NSAwLjU4IC00LjI3NyAzLjMgLTQuNDczbDE0LjM2NyAtMC45NjcgMTkuOCAzMC4zMjd2LTI2LjgzbC01LjA0NyAtMC41OGMtMC4zOSAtMi4xNDMgMS4xNjMgLTMuNyAzLjEwMyAtMy44OWwxMy40IC0wLjc4eiIgY2xpcC1ydWxlPSJldmVub2RkIiBmaWxsLXJ1bGU9ImV2ZW5vZGQiLz4mI3hhOzwvc3ZnPg==;" vertex="1" parent="1">
          <mxGeometry x="150" y="60.75000000000001" width="170" height="170" as="geometry" />
        </mxCell>
      </root>
    </mxGraphModel>
  </diagram>
</mxfile>
